<svg xmlns="http://www.w3.org/2000/svg" viewBox="0 0 605.22 476.45"><defs><style>.cls-1{fill:#fb4343;}.cls-2{fill:#fbaa15;}.cls-3{fill:#960;}.cls-4{fill:#707c7c;stroke:#333;stroke-miterlimit:10;stroke-width:0.75px;}.cls-5{fill:#050404;}.cls-6{fill:#333;}.cls-7{fill:none;}</style></defs><title>Obszar roboczy 1</title><g id="Background"><rect class="cls-1" x="-0.39" y="-0.39" width="606.56" height="478.23"/></g><g id="Cat_body"><path class="cls-2" d="M518.83,338.17c-4.66-32.67-15.33-70-32-106.67s-40.66-49.33-54.66-57.33-46.67-14-66-15.34c-10.38-.71-19.22-1.43-31.06-1.94l-5.8,14.26-6.92,17L317.6,199.9l-1.77,4.34L309,221l-9,22.16a2.91,2.91,0,0,1-5.33.13l-10-21.56-7.13-15.33-3.63-7.8-4.35-9.35-8.39-18L255,157.83a2.6,2.6,0,0,1-.16-.44c-22.6,1.31-42.78,3.49-57.29,5.44-29.67,4-75.61,25.93-101,96.67C81.61,301,74.2,344,70.66,380.83H523.3C521.75,363.3,520.18,347.61,518.83,338.17Z"/><path class="cls-3" d="M335.11,156.89l-5.8,14.26c-7.59-1.25-26.29-4-41.06-3.65a134.81,134.81,0,0,0-27.1,3.66L255,157.83a2.6,2.6,0,0,1-.16-.44c12.77-.75,26.32-1.22,40-1.22C312.44,156.17,324.89,156.45,335.11,156.89Z"/><path class="cls-3" d="M309,221l-9,22.16a2.91,2.91,0,0,1-5.33.13l-10-21.56a42.12,42.12,0,0,1,12.18-2.18A59.12,59.12,0,0,1,309,221Z"/><path class="cls-3" d="M322.39,188.14,317.6,199.9l-1.77,4.34c-5.68-.91-15.46-2.25-21.08-1.74-6.09.55-13.67,2.74-17.23,3.85l-3.63-7.8-4.35-9.35a85.77,85.77,0,0,1,22.21-3.7C302.86,185.17,315.28,186.93,322.39,188.14Z"/><path class="cls-2" d="M329.31,171.15l-6.92,17c-7.11-1.21-19.53-3-30.64-2.64a85.77,85.77,0,0,0-22.21,3.7l-8.39-18a134.81,134.81,0,0,1,27.1-3.66C303,167.11,321.72,169.9,329.31,171.15Z"/><path class="cls-2" d="M315.83,204.24,309,221a59.12,59.12,0,0,0-12.19-1.45,42.12,42.12,0,0,0-12.18,2.18l-7.13-15.33c3.56-1.11,11.14-3.3,17.23-3.85C300.37,202,310.15,203.33,315.83,204.24Z"/><path class="cls-3" d="M520.43,354.57c-19.79.31-98.27,1.56-120.93,2.43-26,1-98.5,6.5-118,8s-109,9.5-109,9.5L137,376c-26.21,1.11-52.69-4.05-65.36-7.23,1.07-9.13,2.38-18.58,4-28.23C93.08,345.6,114,349.88,133,349c43-2,203-15.5,203-15.5s83-9,119.5-10.5c15.9-.65,39-1.31,60-1.83q1.74,8.85,3,17.33C519.11,342.74,519.76,348.22,520.43,354.57Z"/><path class="cls-3" d="M525.44,410.51c-32.66,1-104.3,3.11-127.94,3.49-31,.5-115.5,5-149.5,7s-98,8-133,8a233.64,233.64,0,0,1-47.35-4.84c.27-9.31.77-19.54,1.6-30.47,13.82,2,35,4.88,50.75,5.81,25.5,1.5,40.5,1,86-1s66-7.5,90-10.5,84.5-6.5,116-7.5c30.23-1,76.12-1.46,110.71-2.38C523.64,388.48,524.57,399.59,525.44,410.51Z"/><path class="cls-2" d="M522.71,378.12c-34.59.92-80.48,1.42-110.71,2.38-31.5,1-92,4.5-116,7.5s-44.5,8.5-90,10.5-60.5,2.5-86,1c-15.78-.93-36.93-3.77-50.75-5.81.61-8,1.39-16.3,2.39-24.92C84.31,372,110.79,377.11,137,376l35.5-1.5s89.5-8,109-9.5,92-7,118-8c22.66-.87,101.14-2.12,120.93-2.43C521.17,361.56,521.94,369.58,522.71,378.12Z"/><path class="cls-3" d="M530.5,478.5l-462-.67s-1-11.51-1.12-30.56c12,1.34,26.84,2.75,39.62,3.23,26.5,1,48.5-.5,68-1.5s45,3,91.5,1c0,0,34-4,52-3.5s76-3.5,112-4.5c27.05-.75,75.28,1.6,97.58,2.82C529.54,464.38,530.5,478.5,530.5,478.5Z"/><path class="cls-2" d="M528.08,444.82c-22.3-1.22-70.53-3.57-97.58-2.82-36,1-94,5-112,4.5s-52,3.5-52,3.5c-46.5,2-72-2-91.5-1s-41.5,2.5-68,1.5c-12.78-.48-27.64-1.89-39.62-3.23,0-6.8,0-14.57.27-23.11A233.64,233.64,0,0,0,115,429c35,0,99-6,133-8s118.5-6.5,149.5-7c23.64-.38,95.28-2.51,127.94-3.49C526.41,422.61,527.32,434.48,528.08,444.82Z"/></g><g id="Cat_eye_L"><path class="cls-4" d="M251.67,227.83A15.17,15.17,0,1,0,266.83,243,15.17,15.17,0,0,0,251.67,227.83Zm1.83,20a4.34,4.34,0,1,1,4-4.33A4.18,4.18,0,0,1,253.5,247.83Z"/><path class="cls-5" d="M257.5,243.5a4,4,0,1,1-4-4.33A4.18,4.18,0,0,1,257.5,243.5Z"/></g><g id="Cat_eye_R"><path class="cls-4" d="M346.5,225.17a15,15,0,1,0,15,15A15,15,0,0,0,346.5,225.17Zm.67,22a4.35,4.35,0,1,1,4-4.34A4.18,4.18,0,0,1,347.17,247.17Z"/><path class="cls-5" d="M351.17,242.83a4,4,0,1,1-4-4.33A4.18,4.18,0,0,1,351.17,242.83Z"/></g><g id="Cat_face"><path class="cls-6" d="M207,295.5a15.16,15.16,0,0,0,0,4.36,9.48,9.48,0,0,0,1.44,4,11,11,0,0,0,3.13,2.88,38.33,38.33,0,0,0,3.62,2.39,20.72,20.72,0,0,0,8.12,2.61c1.42.16,2.88.21,4.35.3l4.38.29H232l18.29-.58,18.29-.47c6.09-.25,12.21-.15,18.16-1.23a23.44,23.44,0,0,0,4.33-1.17,7.15,7.15,0,0,0,3.52-2.52,18.77,18.77,0,0,0,2-4A40.81,40.81,0,0,0,298,298a37.46,37.46,0,0,1-1.12,4.44,19.24,19.24,0,0,1-1.88,4.23,7.73,7.73,0,0,1-3.65,2.91,22.83,22.83,0,0,1-4.45,1.36c-6,1.27-12.2,1.42-18.29,1.68l-18.29.64-18.3.39H232c-2.94-.24-5.81-.39-8.79-.77a21.71,21.71,0,0,1-8.4-3,35.73,35.73,0,0,1-3.62-2.56,11.43,11.43,0,0,1-3.12-3.19,9.93,9.93,0,0,1-1.3-4.25A14.68,14.68,0,0,1,207,295.5Z"/><path class="cls-6" d="M390.78,287.06a14.21,14.21,0,0,1-.43,9.08,17.29,17.29,0,0,1-2.47,3.94,14,14,0,0,1-3.54,3.07A23.43,23.43,0,0,1,375.5,306c-3,.51-6,1-9.06,1.45l.16,0c-.24.05-.51.09-.75.12l-.58.06-1.16.11-2.3.22-4.61.4-9.23.77q-9.23.66-18.47,1.21c-3.08.17-6.16.36-9.27.39a41.37,41.37,0,0,1-9.29-1,32.51,32.51,0,0,1-4.5-1.3,14.3,14.3,0,0,1-4.13-2.24,13,13,0,0,1-2.7-3.83,29,29,0,0,1-1.75-4.29,33.82,33.82,0,0,0,2,4.16,12.63,12.63,0,0,0,2.77,3.56,14,14,0,0,0,4.06,2,33.44,33.44,0,0,0,4.43,1.13,40.76,40.76,0,0,0,9.08.7c3.07-.15,6.14-.36,9.22-.56,6.15-.42,12.29-.9,18.44-1.38l9.22-.68,9-.73.16,0c3-.45,6-.88,9.06-1.27a22.78,22.78,0,0,0,8.56-2.48,13.82,13.82,0,0,0,3.44-2.8,17,17,0,0,0,2.56-3.68A12.4,12.4,0,0,0,391,291.6,15.73,15.73,0,0,0,390.78,287.06Z"/><path id="Nose" class="cls-6" d="M299.91,296.42,305,286.8a2.18,2.18,0,0,0-2-3.19l-10.88.4a2.18,2.18,0,0,0-1.76,3.33l5.78,9.22A2.18,2.18,0,0,0,299.91,296.42Z"/></g><g id="Cat_ear_L"><path class="cls-6" d="M220.19,76.09a31.72,31.72,0,0,1-1.53-5.91,20.38,20.38,0,0,1-.11-6.09,19,19,0,0,1,.76-2.93,16.79,16.79,0,0,0,.57-2.89,13.08,13.08,0,0,0-.63-5.85,13.24,13.24,0,0,1,1,5.88,16.91,16.91,0,0,1-.41,3,18.75,18.75,0,0,0-.56,2.88,19.49,19.49,0,0,0,.48,5.79,30.41,30.41,0,0,0,1.8,5.54Z"/><path class="cls-6" d="M221.34,76.48a8.2,8.2,0,0,0,2.87.14,5.31,5.31,0,0,0,2.37-1.53c.76-.71,1.47-1.46,2.17-2.25a4,4,0,0,1,2.75-1.46,3.77,3.77,0,0,0-2.46,1.7c-.59.86-1.23,1.71-1.92,2.53A13.53,13.53,0,0,1,226,76.79a5.26,5.26,0,0,1-.67.54,3.28,3.28,0,0,1-.86.39,9.63,9.63,0,0,1-3.37.24Z"/><path class="cls-6" d="M219.68,76.14c1.51-1.64,3.06-3.18,4.7-4.65a33.86,33.86,0,0,1,5.29-4,13.12,13.12,0,0,1,1.5-.75l1.52-.58a7.93,7.93,0,0,0,2.5-1.93,14.62,14.62,0,0,0,2.94-5.73,14.82,14.82,0,0,1-2.66,6,8.22,8.22,0,0,1-2.53,2.19l-1.5.68a13.6,13.6,0,0,0-1.38.79,32.93,32.93,0,0,0-4.9,4.18,63.36,63.36,0,0,0-4.33,4.8Z"/><path id="Pivot_ear_L" class="cls-2" d="M204.17,233.67a43.84,43.84,0,0,1-87.67,0c0-.95,0-1.9.1-2.84a43.84,43.84,0,0,1,43.34-41h.39a43.82,43.82,0,0,1,43.74,41C204.14,231.77,204.17,232.72,204.17,233.67Z"/><path class="cls-2" d="M184.83,133.17c-9.7,12.77-17.85,33.18-21.12,42a101.17,101.17,0,0,1,34.46-11.52c2.38-.32,4.92-.65,7.59-1-1.55,9.95-3.32,18.68-3.59,29.14-.34,13,2,39,2,39h-.1c.07.94.1,1.89.1,2.84a43.84,43.84,0,0,1-87.67,0c0-.95,0-1.9.1-2.84h-.43A90.64,90.64,0,0,1,119,216.61c3.53-13,11.23-33.72,27.79-56.78,13-18.1,34.61-46.52,51.34-63C211.6,83.6,221.83,74.5,221.83,74.5s-2.56,12.92-5.57,28.57C207.05,110.46,192.9,122.56,184.83,133.17Z"/><path class="cls-3" d="M216.26,103.07c-3.87,20.07-8.49,44.6-9.43,52.1-.32,2.61-.69,5.1-1.07,7.52-2.67.33-5.21.66-7.59,1a101.17,101.17,0,0,0-34.46,11.52c3.27-8.84,11.42-29.25,21.12-42C192.9,122.56,207.05,110.46,216.26,103.07Z"/><path class="cls-7" d="M205.76,162.69A763.57,763.57,0,0,1,295.5,157c38,0,52,1.33,71.33,2.67s52,7.33,66,15.33,38,20.67,54.67,57.33,27.33,74,32,106.67,12,140,12,140l-462-.67s-9.67-114,27.67-218A191.57,191.57,0,0,1,119,216.61"/></g><g id="Cat_ear_R"><path class="cls-6" d="M379.77,84.65a43.25,43.25,0,0,0-1.87-6.86,21.85,21.85,0,0,0-1.46-3.23,9.25,9.25,0,0,0-2.11-2.71c-1.89-1.53-3.66-3.19-5.39-4.87s-3.43-3.4-5.1-5.15c1.75,1.66,3.54,3.28,5.35,4.87s3.66,3.14,5.6,4.55a10,10,0,0,1,2.46,2.83,23.22,23.22,0,0,1,1.69,3.29,44.56,44.56,0,0,1,2.3,7Z"/><path class="cls-6" d="M381.49,85.17a24.39,24.39,0,0,0,5.43-3.68A11.1,11.1,0,0,0,389,79a5,5,0,0,0,.77-3c-.1-1-.68-2.1-.83-3.24a14.62,14.62,0,0,1-.16-3.43,19,19,0,0,1,1.72-6.55,18.88,18.88,0,0,0-1.34,6.57,14.06,14.06,0,0,0,.33,3.3,10.62,10.62,0,0,0,.5,1.57,8,8,0,0,1,.52,1.69,5.75,5.75,0,0,1-.69,3.51,12.07,12.07,0,0,1-2.11,2.83,26.12,26.12,0,0,1-5.53,4.2Z"/><path class="cls-6" d="M379.88,84.91a20.41,20.41,0,0,0,3.48-3.21,5.3,5.3,0,0,0,1.11-2,12.36,12.36,0,0,0,.48-2.33A11.23,11.23,0,0,0,385,75c-.05-.39-.12-.78-.2-1.18a6.94,6.94,0,0,1-.14-1.26,32.21,32.21,0,0,1,.37-4.92,30.7,30.7,0,0,0,0,4.89,7.33,7.33,0,0,0,.21,1.17,10.34,10.34,0,0,1,.3,1.22,11.22,11.22,0,0,1,.18,2.52,13.17,13.17,0,0,1-.33,2.51,6.44,6.44,0,0,1-1.11,2.4,21.72,21.72,0,0,1-3.46,3.71Z"/><path class="cls-7" d="M531.5,479l-462-.67s-9.67-114,27.67-218c25.39-70.73,71.33-92.66,101-96.66A764.42,764.42,0,0,1,295.5,157c38,0,52,1.33,71.33,2.67a253.53,253.53,0,0,1,27.49,3.65c1.66,12.78,4.19,22.89,4.51,35.51.34,13-2,39-2,39h.1c-.07.94-.1,1.89-.1,2.84a43.84,43.84,0,0,0,87.67,0c0-.95,0-1.9-.1-2.84h.43a100.22,100.22,0,0,0-4.12-18.54,134.09,134.09,0,0,1,6.79,13c16.67,36.67,27.33,74,32,106.67S531.5,479,531.5,479Z"/><path class="cls-7" d="M484.5,240.67a43.84,43.84,0,0,1-87.67,0c0-.95,0-1.9.1-2.84a43.82,43.82,0,0,1,43.74-41h.21a43.82,43.82,0,0,1,43.52,41C484.47,238.77,484.5,239.72,484.5,240.67Z"/><path class="cls-2" d="M484.4,237.83c.07.94.1,1.89.1,2.84a43.84,43.84,0,0,1-87.67,0c0-.95,0-1.9.1-2.84h-.1s2.34-26,2-39c-.32-12.62-2.85-22.73-4.51-35.51,14.95,2.79,30.1,6.87,38.51,11.68l2.17,1.24c-4-10.15-10.91-25.65-18.83-36.07-8.12-10.68-22.12-21.91-31.14-28.6-3.14-16.31-5.86-30.07-5.86-30.07s10.23,9.1,23.66,22.33c16.73,16.48,38.33,44.9,51.34,63,14.83,20.65,22.56,39.42,26.54,52.46a100.22,100.22,0,0,1,4.12,18.54Z"/><path class="cls-3" d="M435,176.24,432.83,175c-8.41-4.81-23.56-8.89-38.51-11.68l-.15-1.15c-.91-7.31-5.33-30.83-9.14-50.6,9,6.69,23,17.92,31.14,28.6C424.09,150.59,431,166.09,435,176.24Z"/></g><g id="Cat_whiskers_R"><path class="cls-6" d="M320,287.58a84,84,0,0,1,11.46-4.9q5.88-2.08,11.92-3.66a202.33,202.33,0,0,1,24.51-4.74c8.25-1.16,16.58-1.58,24.87-2.06s16.61-.74,24.91-1q24.93-.58,49.84-.66l24.92.07c8.31.1,16.62.17,24.92.36l-49.83.73c-16.6.26-33.21.49-49.81,1q-12.45.27-24.88.83c-8.29.41-16.57.86-24.8,1.84a203.07,203.07,0,0,0-24.47,4.31c-4,.93-8,2-12,3.33A92.56,92.56,0,0,0,320,287.58Z"/><path class="cls-6" d="M329.81,293.84c15.33-3.31,30.78-6.13,46.38-8,1.95-.24,3.91-.43,5.86-.63s3.94-.24,5.9-.35c3.93-.11,7.86-.21,11.78-.23,7.85-.08,15.69,0,23.54,0,15.68.24,31.36.56,47,1l23.51.82c7.83.34,15.67.64,23.5,1.05l-23.52-.32-23.52-.39c-15.68-.26-31.35-.59-47-.71-7.84-.1-15.68-.2-23.51-.16-3.92,0-7.83.07-11.74.16-1.95.09-3.89.18-5.84.3s-3.9.31-5.84.52c-7.79.77-15.55,1.86-23.3,3S337.54,292.48,329.81,293.84Z"/><path class="cls-6" d="M328.47,304.14q22.14-2.44,44.38-4c7.41-.51,14.82-.94,22.26-1.12s14.86-.22,22.29-.18,14.86.19,22.28.49,14.85.68,22.26,1.23,14.82,1.28,22.18,2.35l22.05,3.12h0l20.51,5.23-20.66-4.62h0L484,304c-7.36-.93-14.74-1.56-22.14-2.08-14.79-1-29.63-1.37-44.46-1.59-7.42-.08-14.84-.08-22.25.06s-14.82.48-22.23.86C358.09,302,343.28,303.05,328.47,304.14Z"/></g><g id="Cat_whiskers_L"><path class="cls-6" d="M272.53,288.47a258,258,0,0,0-25.67-7.62A212.11,212.11,0,0,0,220.57,276a264.3,264.3,0,0,0-26.7-1.5c-8.92-.11-17.85.08-26.77.44-17.85.61-35.66,2-53.51,3.14S77.85,279.71,60,279.52c8.93-.21,17.87-.52,26.79-1s17.85-.93,26.75-1.61c17.82-1.36,35.65-2.75,53.54-3.49,8.94-.32,17.89-.46,26.84-.31a240.68,240.68,0,0,1,26.82,1.73A227,227,0,0,1,272.53,288.47Z"/><path class="cls-6" d="M259.11,296.08q-12.92-2.41-26-3.91c-8.69-1-17.42-1.73-26.16-1.93l-3.27-.06-3.28,0c-1.09,0-2.18,0-3.27,0l-3.27.14c-4.36.19-8.73.56-13.09.88-8.73.69-17.45,1.49-26.17,2.31L128.45,296c-8.73.75-17.46,1.56-26.22,2a356.07,356.07,0,0,1-52.56-1c8.75.47,17.51.75,26.26.74s17.51-.21,26.23-.88c17.45-1.32,34.89-3.11,52.33-4.75,8.73-.78,17.46-1.53,26.21-2.18,4.37-.3,8.74-.64,13.13-.81,2.2-.09,4.4-.18,6.6-.14l3.29,0,3.29.11A300.33,300.33,0,0,1,259.11,296.08Z"/><path class="cls-6" d="M264.93,305.48c-8.92.2-17.84.44-26.75.84-4.46.18-8.91.38-13.36.63s-8.9.53-13.33,1c-17.71,1.86-35.35,4.58-53,7.36l-26.44,4.17-13.2,2.13q-6.59,1.15-13.16,2.38c-8.76,1.65-17.51,3.41-26.24,5.2l-26.22,5.38c8.66-2.13,17.36-4.11,26.06-6.1s17.44-3.82,26.18-5.61q6.56-1.35,13.16-2.53l13.21-2.2,26.42-4.3c8.82-1.36,17.65-2.68,26.49-3.9s17.7-2.37,26.61-3.13C229.23,305.48,247.08,305.31,264.93,305.48Z"/></g></svg>