<svg xmlns="http://www.w3.org/2000/svg" viewBox="0 0 664.55 439.45"><defs><style>.cls-1{fill:#fb4343;}.cls-2{fill:#fbaa15;}.cls-3{fill:#960;}.cls-4{fill:#707c7c;stroke:#4c4c4c;stroke-width:0.75px;}.cls-4,.cls-8{stroke-miterlimit:10;}.cls-5{fill:#050404;}.cls-6{fill:#4c4c4c;}.cls-7{fill:none;}.cls-8{fill:#006837;stroke:#000;}.cls-9{fill:#fbaa19;}</style></defs><title>Obszar roboczy 1</title><g id="Background"><rect class="cls-1" x="0.17" y="-0.4" width="664" height="439.9"/></g><g id="Cat_tail"><path class="cls-2" d="M142.27,252.31l-2.5,170.43c-.13,8.79-8.66,15.84-19.22,15.89h0c-10.64.05-19.4-7-19.64-15.89l-4.6-168.35,0-1.75,0-.68a79.19,79.19,0,0,1,18.07-2.53A115.8,115.8,0,0,1,142.27,252.31Z"/><path class="cls-2" d="M143.13,194.21l-.44,29.4c-7.35-1.46-17.32-3-26-2.76a50.67,50.67,0,0,0-20.87,5.68l-.3-21.92-.11-8a42.55,42.55,0,0,1,20.38-5.15A132.06,132.06,0,0,1,143.13,194.21Z"/><path class="cls-2" d="M119.35,132.88A245,245,0,0,1,144,134.73l-.45,30.46c-8.3-.45-18.3-.89-26-1-7.89-.11-16.15,2.52-22.48,5.23l-.4-30L94.63,136A96,96,0,0,1,119.35,132.88Z"/><path class="cls-3" d="M120,89.89a25,25,0,0,1,24.27,25.33L144,134.73a245,245,0,0,0-24.65-1.85A96,96,0,0,0,94.63,136l-.28-20.82A25,25,0,0,1,120,89.89Z"/><path class="cls-3" d="M117.56,164.18c7.69.12,17.69.56,26,1l-.42,29a132.06,132.06,0,0,0-27.3-2.71,42.55,42.55,0,0,0-20.38,5.15l-.31-22.92-.06-4.32C101.41,166.7,109.67,164.07,117.56,164.18Z"/><path class="cls-3" d="M142.69,223.61l-.44,29.95c-6.59-2.11-17.25-4.75-27.94-4.08a56.58,56.58,0,0,0-18.09,3.89L95.92,231l-.06-4.47a50.67,50.67,0,0,1,20.87-5.68C125.37,220.61,135.34,222.15,142.69,223.61Z"/></g><g id="Cat_body"><path class="cls-2" d="M552.83,338.17c-1.38-9.68-3.29-19.77-5.73-30.13q-2.4-10.21-5.49-20.75-2.37-8.09-5.16-16.29c-4.43-13.09-9.64-26.33-15.62-39.5-1.89-4.16-3.87-8-5.93-11.58A118.36,118.36,0,0,0,506.33,207l-.51-.66c-12.92-16.62-27-24.94-37.06-30.68l-2.59-1.48c-8.3-4.75-23.18-8.79-37.94-11.57a254,254,0,0,0-28.06-3.77c-10.38-.71-19.22-1.43-31.06-1.94l-.32.79-5.48,13.47-6.92,17L351.6,199.9l-1.77,4.34L343,221l-9,22.16a2.91,2.91,0,0,1-5.33.13l-10-21.56-7.13-15.33-3.63-7.8-4.35-9.35-8.39-18-6-12.93-.19-.4a2.6,2.6,0,0,1-.16-.44c-18.52,1.07-35.41,2.73-48.89,4.37-3,.36-5.78.72-8.4,1.07a101,101,0,0,0-33.23,10.86c-14.94,7.85-30.59,20.44-44.38,39.91A167.2,167.2,0,0,0,142.57,232v.08h0a200.43,200.43,0,0,0-8.71,18.61c-.07.17-.14.34-.2.51q-1.62,4-3.15,8.26-3.43,9.6-6.36,19.27c-2,6.44-3.75,12.9-5.39,19.33-2.66,10.44-4.92,20.83-6.83,31q-1.1,5.78-2,11.48c-1.6,9.65-2.9,19.09-4,28.22q-.72,6.09-1.28,12H557.3C555.75,363.3,554.18,347.61,552.83,338.17Z"/><path class="cls-3" d="M369.11,156.89l-5.8,14.26c-7.59-1.25-26.29-4-41.06-3.65a134.81,134.81,0,0,0-27.1,3.66L289,157.83a2.6,2.6,0,0,1-.16-.44c12.77-.75,26.32-1.22,40-1.22C346.44,156.17,358.89,156.45,369.11,156.89Z"/><path class="cls-3" d="M343,221l-9,22.16a2.91,2.91,0,0,1-5.33.13l-10-21.56a42.12,42.12,0,0,1,12.18-2.18A59.12,59.12,0,0,1,343,221Z"/><path class="cls-3" d="M356.39,188.14,351.6,199.9l-1.77,4.34c-5.68-.91-15.46-2.25-21.08-1.74-6.09.55-13.67,2.74-17.23,3.85l-3.63-7.8-4.35-9.35a85.77,85.77,0,0,1,22.21-3.7C336.86,185.17,349.28,186.93,356.39,188.14Z"/><path class="cls-2" d="M363.31,171.15l-6.92,17c-7.11-1.21-19.53-3-30.64-2.64a85.77,85.77,0,0,0-22.21,3.7l-8.39-18a134.81,134.81,0,0,1,27.1-3.66C337,167.11,355.72,169.9,363.31,171.15Z"/><path class="cls-2" d="M349.83,204.24,343,221a59.12,59.12,0,0,0-12.19-1.45,42.12,42.12,0,0,0-12.18,2.18l-7.13-15.33c3.56-1.11,11.14-3.3,17.23-3.85C334.37,202,344.15,203.33,349.83,204.24Z"/><path class="cls-3" d="M554.43,354.57c-19.79.31-98.27,1.56-120.93,2.43-26,1-98.5,6.5-118,8s-109,9.5-109,9.5L171,376c-26.21,1.11-52.69-4.05-65.36-7.23,1.07-9.13,2.38-18.58,4-28.23C127.08,345.6,148,349.88,167,349c43-2,203-15.5,203-15.5s83-9,119.5-10.5c15.9-.65,39-1.31,60-1.83q1.74,8.85,3,17.33C553.11,342.74,553.76,348.22,554.43,354.57Z"/><path class="cls-3" d="M559.44,410.51c-32.66,1-104.3,3.11-127.94,3.49-31,.5-115.5,5-149.5,7s-98,8-133,8a233.64,233.64,0,0,1-47.35-4.84c.27-9.31.77-19.54,1.6-30.47,13.82,2,35,4.88,50.75,5.81,25.5,1.5,40.5,1,86-1s66-7.5,90-10.5,84.5-6.5,116-7.5c30.23-1,76.12-1.46,110.71-2.38C557.64,388.48,558.57,399.59,559.44,410.51Z"/><path class="cls-2" d="M556.71,378.12c-34.59.92-80.48,1.42-110.71,2.38-31.5,1-92,4.5-116,7.5s-44.5,8.5-90,10.5-60.5,2.5-86,1c-15.78-.93-36.93-3.77-50.75-5.81.61-8,1.39-16.3,2.39-24.92C118.31,372,144.79,377.11,171,376l35.5-1.5s89.5-8,109-9.5,92-7,118-8c22.66-.87,101.14-2.12,120.93-2.43C555.17,361.56,555.94,369.58,556.71,378.12Z"/><path class="cls-2" d="M561.69,439.5H101.39c0-4,.08-8.34.19-12.87h0c0-.82,0-1.63.07-2.46l1,.21h0l1.57.31c2.89.58,6.14,1.15,9.72,1.69l2.05.3,2.21.3,2.12.27,1.7.2,1.31.15c1.52.17,3.09.32,4.7.47l1.79.15,1.81.14,1.33.1,1.7.11,1.71.1,1.89.1,1.61.06c.59,0,1.18.05,1.78.06,1,0,2,.06,3.05.08,1.41,0,2.83,0,4.28,0,35,0,99-6,133-8s118.5-6.5,149.5-7c23.64-.38,95.28-2.51,127.94-3.49C560.25,420.58,561,430.5,561.69,439.5Z"/></g><g id="Cat_eye_L"><path class="cls-4" d="M300.82,242.51v-.08a15.16,15.16,0,0,0-30.3-.07v0c0,.2,0,.4,0,.6a15.08,15.08,0,0,0,5.57,11.73c.18.15.35.3.54.44a15.22,15.22,0,0,0,6.75,2.83l.38.05.38,0c.51.05,1,.08,1.55.08s1,0,1.55-.08l.38,0L288,258a15.16,15.16,0,0,0,11.35-8.42.53.53,0,0,0,.06-.14,14.93,14.93,0,0,0,1.44-6.44C300.83,242.84,300.83,242.67,300.82,242.51Zm-13.32,5.32a4.34,4.34,0,1,1,4-4.33A4.18,4.18,0,0,1,287.5,247.83Z"/><path class="cls-5" d="M291.5,243.5a4,4,0,1,1-4-4.33A4.18,4.18,0,0,1,291.5,243.5Z"/></g><g id="Eyelid_L"><path class="cls-2" d="M301.5,242.34a15.83,15.83,0,1,1-15.83-15.84A15.83,15.83,0,0,1,301.5,242.34Z"/><path class="cls-6" d="M270.5,242a23.4,23.4,0,0,0,1.61,5.94,17.42,17.42,0,0,0,3.17,5.11,13,13,0,0,0,1.05,1l1.16.92c.4.28.85.49,1.27.75a6.26,6.26,0,0,0,1.34.61,16.47,16.47,0,0,0,5.8,1.11c.49,0,1,0,1.49-.06a9.15,9.15,0,0,0,1.48-.13,13.65,13.65,0,0,0,2.84-.75,12.38,12.38,0,0,0,2.62-1.32l1.14-.93a12.76,12.76,0,0,0,1-1.05,16.69,16.69,0,0,0,3-5.2,23.84,23.84,0,0,0,1.35-6,18.26,18.26,0,0,1-3.43,12,11.45,11.45,0,0,1-1.08,1.23l-1.23,1.08a14.43,14.43,0,0,1-6,2.45,11,11,0,0,1-1.61.16c-.54,0-1.08.08-1.62.08a17.26,17.26,0,0,1-6.32-1.31,7.34,7.34,0,0,1-1.46-.72c-.45-.3-.94-.56-1.37-.88L275.48,255c-.4-.37-.72-.81-1.09-1.21A18.72,18.72,0,0,1,270.5,242Z"/></g><g id="Cat_eye_R"><path class="cls-4" d="M380.5,225.17a15,15,0,0,0-15,15c0,.23,0,.45,0,.67v0a14.53,14.53,0,0,0,.71,3.93.14.14,0,0,0,0,.06,15,15,0,0,0,14.25,10.32,14.79,14.79,0,0,0,7.16-1.83l.18-.09a15,15,0,0,0,4.07-3.35l.06-.07c.16-.18.31-.38.46-.57a.44.44,0,0,0,.09-.11,15,15,0,0,0,3-9v-.08A15,15,0,0,0,380.5,225.17Zm.67,13.33a4.35,4.35,0,1,1-4,4.33A4.18,4.18,0,0,1,381.17,238.5Z"/><path class="cls-5" d="M385.17,242.83a4,4,0,1,1-4-4.33A4.18,4.18,0,0,1,385.17,242.83Z"/></g><g id="Eyelid_R"><path class="cls-2" d="M396.17,239.17a15.5,15.5,0,1,1-15.49-15.51A15.5,15.5,0,0,1,396.17,239.17Z"/><path class="cls-6" d="M365.25,238.5a23.4,23.4,0,0,0,1.61,5.94,17.42,17.42,0,0,0,3.17,5.11,13,13,0,0,0,1.05,1l1.16.92c.4.28.85.49,1.27.75a6.26,6.26,0,0,0,1.34.61,16.47,16.47,0,0,0,5.8,1.11c.49,0,1,0,1.49-.06a9.15,9.15,0,0,0,1.48-.13,13.65,13.65,0,0,0,2.84-.75,12.38,12.38,0,0,0,2.62-1.32l1.14-.93a12.76,12.76,0,0,0,1-1.05,16.69,16.69,0,0,0,3-5.2,23.84,23.84,0,0,0,1.35-6,18.26,18.26,0,0,1-3.43,12,11.45,11.45,0,0,1-1.08,1.23l-1.23,1.08a14.43,14.43,0,0,1-6,2.45,11,11,0,0,1-1.61.16c-.54,0-1.08.08-1.62.08a17.26,17.26,0,0,1-6.32-1.31,7.34,7.34,0,0,1-1.46-.72c-.45-.3-.94-.56-1.37-.88l-1.24-1.06c-.4-.37-.72-.81-1.09-1.21A18.72,18.72,0,0,1,365.25,238.5Z"/></g><g id="Cat_face"><g id="Catface_L"><path class="cls-6" d="M241,295.5a15.16,15.16,0,0,0,0,4.36,9.48,9.48,0,0,0,1.44,4,11,11,0,0,0,3.13,2.88,38.33,38.33,0,0,0,3.62,2.39,20.72,20.72,0,0,0,8.12,2.61c1.42.16,2.88.21,4.35.3l4.38.29H266l18.29-.58,18.29-.47c6.09-.25,12.21-.15,18.16-1.23a23.44,23.44,0,0,0,4.33-1.17,7.15,7.15,0,0,0,3.52-2.52,18.77,18.77,0,0,0,2-4A40.81,40.81,0,0,0,332,298a37.46,37.46,0,0,1-1.12,4.44,19.24,19.24,0,0,1-1.88,4.23,7.73,7.73,0,0,1-3.65,2.91,22.83,22.83,0,0,1-4.45,1.36c-6,1.27-12.2,1.42-18.29,1.68l-18.29.64-18.3.39H266c-2.94-.24-5.81-.39-8.79-.77a21.71,21.71,0,0,1-8.4-3,35.73,35.73,0,0,1-3.62-2.56,11.43,11.43,0,0,1-3.12-3.19,9.93,9.93,0,0,1-1.3-4.25A14.68,14.68,0,0,1,241,295.5Z"/></g><g id="Catface_R"><path class="cls-6" d="M424.78,287.06a14.21,14.21,0,0,1-.43,9.08,17.29,17.29,0,0,1-2.47,3.94,14,14,0,0,1-3.54,3.07A23.43,23.43,0,0,1,409.5,306c-3,.51-6,1-9.06,1.45l.16,0c-.24.05-.51.09-.75.12l-.58.06-1.16.11-2.3.22-4.61.4-9.23.77q-9.23.66-18.47,1.21c-3.08.17-6.16.36-9.27.39a41.37,41.37,0,0,1-9.29-1,32.51,32.51,0,0,1-4.5-1.3,14.3,14.3,0,0,1-4.13-2.24,13,13,0,0,1-2.7-3.83,29,29,0,0,1-1.75-4.29,33.82,33.82,0,0,0,2,4.16,12.63,12.63,0,0,0,2.77,3.56,14,14,0,0,0,4.06,2,33.44,33.44,0,0,0,4.43,1.13,40.76,40.76,0,0,0,9.08.7c3.07-.15,6.14-.36,9.22-.56,6.15-.42,12.29-.9,18.44-1.38l9.22-.68,9-.73.16,0c3-.45,6-.88,9.06-1.27a22.78,22.78,0,0,0,8.56-2.48,13.82,13.82,0,0,0,3.44-2.8,17,17,0,0,0,2.56-3.68A12.4,12.4,0,0,0,425,291.6,15.73,15.73,0,0,0,424.78,287.06Z"/></g><path id="Nose" class="cls-6" d="M333.91,296.42,339,286.8a2.18,2.18,0,0,0-2-3.19l-10.88.4a2.18,2.18,0,0,0-1.76,3.33l5.78,9.22A2.18,2.18,0,0,0,333.91,296.42Z"/></g><g id="Cat_ear_L"><path class="cls-6" d="M254.19,76.09a31.72,31.72,0,0,1-1.53-5.91,20.38,20.38,0,0,1-.11-6.09,19,19,0,0,1,.76-2.93,16.79,16.79,0,0,0,.57-2.89,13.08,13.08,0,0,0-.63-5.85,13.24,13.24,0,0,1,1,5.88,16.91,16.91,0,0,1-.41,3,18.75,18.75,0,0,0-.56,2.88,19.49,19.49,0,0,0,.48,5.79,30.41,30.41,0,0,0,1.8,5.54Z"/><path class="cls-6" d="M255.34,76.48a8.2,8.2,0,0,0,2.87.14,5.31,5.31,0,0,0,2.37-1.53c.76-.71,1.47-1.46,2.17-2.25a4,4,0,0,1,2.75-1.46,3.77,3.77,0,0,0-2.46,1.7c-.59.86-1.23,1.71-1.92,2.53A13.53,13.53,0,0,1,260,76.79a5.26,5.26,0,0,1-.67.54,3.28,3.28,0,0,1-.86.39,9.63,9.63,0,0,1-3.37.24Z"/><path class="cls-6" d="M253.68,76.14c1.51-1.64,3.06-3.18,4.7-4.65a33.86,33.86,0,0,1,5.29-4,13.12,13.12,0,0,1,1.5-.75l1.52-.58a7.93,7.93,0,0,0,2.5-1.93,14.62,14.62,0,0,0,2.94-5.73,14.82,14.82,0,0,1-2.66,6,8.22,8.22,0,0,1-2.53,2.19l-1.5.68a13.6,13.6,0,0,0-1.38.79,32.93,32.93,0,0,0-4.9,4.18,63.36,63.36,0,0,0-4.33,4.8Z"/><path id="Pivot_ear_L" class="cls-2" d="M238.17,233.67a43.84,43.84,0,0,1-87.67,0c0-.95,0-1.9.1-2.84a43.84,43.84,0,0,1,43.34-41h.39a43.82,43.82,0,0,1,43.74,41C238.14,231.77,238.17,232.72,238.17,233.67Z"/><path class="cls-2" d="M218.83,133.17c-9.7,12.77-17.85,33.18-21.12,42a101.17,101.17,0,0,1,34.46-11.52c2.38-.32,4.92-.65,7.59-1-1.55,9.95-3.32,18.68-3.59,29.14-.34,13,2,39,2,39h-.1c.07.94.1,1.89.1,2.84a43.84,43.84,0,0,1-87.67,0c0-.95,0-1.9.1-2.84h-.43A90.64,90.64,0,0,1,153,216.61c3.53-13,11.23-33.72,27.79-56.78,13-18.1,34.61-46.52,51.34-63C245.6,83.6,255.83,74.5,255.83,74.5s-2.56,12.92-5.57,28.57C241.05,110.46,226.9,122.56,218.83,133.17Z"/><path class="cls-3" d="M250.26,103.07c-3.87,20.07-8.49,44.6-9.43,52.1-.32,2.61-.69,5.1-1.07,7.52-2.67.33-5.21.66-7.59,1a101.17,101.17,0,0,0-34.46,11.52c3.27-8.84,11.42-29.25,21.12-42C226.9,122.56,241.05,110.46,250.26,103.07Z"/><path class="cls-7" d="M562.65,439.5c-2.56-34.08-6.34-80.83-9.15-100.5-1.42-9.9-3.38-20.23-5.9-30.84-1.62-6.85-3.48-13.82-5.56-20.86q-2.38-8.08-5.19-16.3c-4.37-12.82-9.49-25.79-15.35-38.67-.38-.83-.76-1.64-1.14-2.44s-.83-1.72-1.25-2.56c-.87-1.72-1.75-3.39-2.65-5-.29-.52-.58-1-.87-1.54s-.59-1-.88-1.51v0A114.26,114.26,0,0,0,506.33,207l-.51-.66C492.9,190,478.94,181.89,469,176.24L466.83,175a43.53,43.53,0,0,0-3.93-2l-.73-.32c-2.2-1-4.65-1.89-7.28-2.78-1.16-.38-2.36-.76-3.59-1.14h0L448.7,168l-1.86-.52-2.31-.61c-2.6-.67-5.29-1.31-8-1.91l-2.61-.55q-2.79-.59-5.6-1.11l-3.71-.66c-2.46-.43-4.9-.81-7.28-1.16-1.13-.16-2.24-.32-3.33-.46s-2.18-.28-3.25-.41l-1.87-.22c-1.2-.13-2.36-.26-3.5-.36l-1.56-.14c-1-.1-2-.17-3-.24-10.66-.74-19.7-1.48-32-2-10-.41-22.25-.68-39.29-.68-5.94,0-11.84.09-17.66.25l-3.34.1-1.53.05q-2.78.09-5.52.21h-.19c-1.72.07-3.44.15-5.14.24-2.35.11-4.68.24-7,.37-4.93.29-9.74.63-14.39,1l-4.31.34-1.53.13-3,.26c-3,.26-5.91.54-8.74.82l-1.41.14-3.35.34-2.13.23-2.64.29-2.58.29-1.26.15-4,.48"/><path class="cls-7" d="M153,216.61l0,0c-.5.74-1,1.48-1.5,2.24q-1.77,2.66-3.46,5.48c-.34.55-.67,1.11-1,1.68-1.54,2.62-3.05,5.29-4.51,8.11h0v0c-.07.13-.14.26-.2.39-.32.61-.64,1.23-1,1.86-.46.91-.91,1.83-1.36,2.75q-2,4.08-3.86,8.44c-.39.91-.78,1.83-1.16,2.76-.07.16-.13.33-.2.49s-.16.38-.23.57q-1.75,4.31-3.4,8.88-3.28,9.17-6.1,18.41-3,9.67-5.43,19.34C117,308.46,114.7,318.8,112.77,329q-1.12,6-2.12,11.88c-1.6,9.63-2.91,19.06-4,28.18q-.69,6-1.26,11.81-.64,6.66-1.13,13c-.84,11-1.35,21.2-1.63,30.53,0,1.53-.08,3-.11,4.5h0q-.14,5.56-.16,10.62"/></g><g id="Cat_ear_R"><path class="cls-6" d="M413.77,84.65a43.25,43.25,0,0,0-1.87-6.86,21.85,21.85,0,0,0-1.46-3.23,9.25,9.25,0,0,0-2.11-2.71c-1.89-1.53-3.66-3.19-5.39-4.87s-3.43-3.4-5.1-5.15c1.75,1.66,3.54,3.28,5.35,4.87s3.66,3.14,5.6,4.55a10,10,0,0,1,2.46,2.83,23.22,23.22,0,0,1,1.69,3.29,44.56,44.56,0,0,1,2.3,7Z"/><path class="cls-6" d="M415.49,85.17a24.39,24.39,0,0,0,5.43-3.68A11.1,11.1,0,0,0,423,79a5,5,0,0,0,.77-3c-.1-1-.68-2.1-.83-3.24a14.62,14.62,0,0,1-.16-3.43,19,19,0,0,1,1.72-6.55,18.88,18.88,0,0,0-1.34,6.57,14.06,14.06,0,0,0,.33,3.3,10.62,10.62,0,0,0,.5,1.57,8,8,0,0,1,.52,1.69,5.75,5.75,0,0,1-.69,3.51,12.07,12.07,0,0,1-2.11,2.83,26.12,26.12,0,0,1-5.53,4.2Z"/><path class="cls-6" d="M413.88,84.91a20.41,20.41,0,0,0,3.48-3.21,5.3,5.3,0,0,0,1.11-2,12.36,12.36,0,0,0,.48-2.33A11.23,11.23,0,0,0,419,75c-.05-.39-.12-.78-.2-1.18a6.94,6.94,0,0,1-.14-1.26,32.21,32.21,0,0,1,.37-4.92,30.7,30.7,0,0,0,0,4.89,7.33,7.33,0,0,0,.21,1.17,10.34,10.34,0,0,1,.3,1.22,11.22,11.22,0,0,1,.18,2.52,13.17,13.17,0,0,1-.33,2.51,6.44,6.44,0,0,1-1.11,2.4,21.72,21.72,0,0,1-3.46,3.71Z"/><path class="cls-7" d="M562.65,439.5c-2.56-34.08-6.34-80.83-9.15-100.5-1.42-9.9-3.38-20.23-5.9-30.84-1.62-6.85-3.48-13.82-5.56-20.86q-2.38-8.08-5.19-16.3c-4.37-12.82-9.49-25.79-15.35-38.67-.38-.83-.76-1.64-1.14-2.44s-.83-1.72-1.25-2.56c-.87-1.72-1.75-3.39-2.65-5-.29-.52-.58-1-.87-1.54s-.59-1-.88-1.51c.06.21.13.42.19.63.73,2.43,1.33,4.66,1.82,6.65.18.74.35,1.44.5,2.11s.27,1.22.39,1.79.19.92.28,1.35l.23,1.22c0,.19.07.38.1.56.12.71.23,1.34.31,1.88,0,.22.06.42.09.61v0l0,.23c.14,1,.18,1.49.18,1.49h-.43c.07.94.1,1.89.1,2.84,0,.45,0,.9,0,1.34s0,.61,0,.92,0,.74-.07,1.11v0c0,.36-.06.72-.1,1.07s-.07.66-.11,1-.09.72-.14,1.07l-.18,1.08c0,.18-.07.37-.1.56-.09.48-.19,1-.3,1.43s-.19.82-.29,1.22c-.2.79-.42,1.58-.67,2.36-.12.39-.25.78-.38,1.16s-.27.77-.42,1.15-.31.82-.48,1.22-.27.64-.41,1-.25.56-.38.83a41.34,41.34,0,0,1-2.09,3.95q-.27.47-.57.93l-.63,1-.37.54c-.31.45-.63.9-1,1.33s-.42.56-.64.84-.53.67-.81,1l-.53.63c-.22.27-.46.53-.7.79s-.61.67-.92,1c-.66.69-1.35,1.35-2.05,2-.26.24-.52.48-.79.7-.53.46-1.07.91-1.62,1.34s-1.11.86-1.69,1.26-1,.71-1.54,1l-.21.14-1.32.81c-.68.41-1.38.8-2.09,1.16l-.61.31-.47.23-.46.22c-.5.24-1,.47-1.52.69l-.09,0-1.31.52-1,.37-1,.34-1,.32-1,.3-1.31.34c-.44.11-.88.21-1.33.3s-.89.19-1.34.27-1,.17-1.54.24l-1.06.14-.8.08-.91.08-.16,0-1,.06-.82,0c-.5,0-1,0-1.51,0l-1.34,0-.92,0-1.11-.07h0l-1.07-.1-1-.11-1.07-.14-.15,0-1.42-.25-1.56-.32c-.37-.08-.75-.17-1.12-.27l-.69-.18-1-.29c-.39-.11-.77-.23-1.15-.36l-1.34-.46-.59-.22q-.57-.21-1.14-.45l-.86-.37c-.58-.25-1.16-.52-1.73-.8l-1.1-.56c-.73-.39-1.46-.79-2.17-1.22l-1-.65c-.59-.38-1.18-.78-1.75-1.19-.29-.19-.57-.4-.85-.62s-.56-.42-.84-.64c-.55-.43-1.09-.88-1.62-1.34-.27-.22-.53-.46-.79-.7s-.49-.44-.72-.66a3.07,3.07,0,0,0-.26-.25c-.43-.42-.86-.85-1.27-1.29s-.55-.58-.81-.88a.76.76,0,0,1-.09-.09,7.31,7.31,0,0,1-.52-.59c-.46-.53-.91-1.07-1.34-1.62-.22-.27-.44-.56-.64-.84-.43-.56-.84-1.13-1.22-1.71-.2-.29-.39-.59-.58-.89s-.38-.59-.56-.89c-.32-.53-.63-1.07-.93-1.61-.21-.38-.42-.77-.62-1.17s-.51-1-.75-1.54c-.13-.27-.25-.54-.37-.82s-.16-.35-.23-.53-.24-.56-.35-.85l-.09-.22c-.21-.54-.41-1.08-.6-1.63q-.18-.5-.33-1c-.12-.37-.23-.74-.34-1.11s-.17-.6-.25-.9c-.13-.48-.25-1-.37-1.46s-.17-.79-.25-1.19-.18-.93-.25-1.39-.11-.67-.16-1c0-.16-.05-.32-.07-.48s-.05-.37-.07-.56c-.15-1.24-.25-2.5-.29-3.77,0-.5,0-1,0-1.51,0-.95,0-1.9.1-2.84h-.1s2.34-26,2-39c-.32-12.62-2.85-22.73-4.51-35.51l-3.71-.66c-2.46-.43-4.9-.81-7.28-1.16-1.13-.16-2.24-.32-3.33-.46s-2.18-.28-3.25-.41l-1.87-.22c-1.2-.13-2.36-.26-3.5-.36l-1.56-.14c-1-.1-2-.17-3-.24-10.66-.74-19.7-1.48-32-2-10-.41-22.25-.68-39.29-.68-5.94,0-11.84.09-17.66.25l-3.34.1-1.53.05q-2.78.09-5.52.21h-.19c-1.72.07-3.44.15-5.14.24-2.35.11-4.68.24-7,.37-4.93.29-9.74.63-14.39,1l-4.31.34-1.53.13-3,.26c-3,.26-5.91.54-8.74.82l-1.41.14-3.35.34-2.13.23-2.64.29-2.58.29-1.26.15-4,.48-3.17.4-1.14.15-3.28.43c-1.27.17-2.57.38-3.9.62l-1.38.26-.94.19-.21,0-1.46.32c-.6.13-1.2.28-1.81.43l-.57.14-1.79.47c-1.48.4-3,.85-4.49,1.34-.66.21-1.33.44-2,.67l-1.23.44-1.53.56-1.76.68c-.73.29-1.46.6-2.19.91s-1.25.54-1.87.82h0c-.35.16-.71.32-1.07.5l-.27.12c-.45.2-.9.42-1.35.64-.74.35-1.49.72-2.23,1.1l-.24.12-2.16,1.15a121.4,121.4,0,0,0-31.69,25l0,0a143.63,143.63,0,0,0-10.08,12.31c-1,1.32-1.94,2.68-2.88,4.07l0,0c-.5.74-1,1.48-1.5,2.24q-1.77,2.66-3.46,5.48c-.34.55-.67,1.11-1,1.68-1.54,2.62-3.05,5.29-4.51,8.11h0v0c-.07.13-.14.26-.2.39-.32.61-.64,1.23-1,1.86-.46.91-.91,1.83-1.36,2.75q-2,4.08-3.86,8.44c-.39.91-.78,1.83-1.16,2.76-.07.16-.13.33-.2.49s-.16.38-.23.57q-1.75,4.31-3.4,8.88-3.28,9.17-6.1,18.41-3,9.67-5.43,19.34C117,308.46,114.7,318.8,112.77,329q-1.12,6-2.12,11.88c-1.6,9.63-2.91,19.06-4,28.18q-.69,6-1.26,11.81-.64,6.66-1.13,13c-.84,11-1.35,21.2-1.63,30.53,0,1.53-.08,3-.11,4.5h0q-.14,5.56-.16,10.62H561.69"/><path class="cls-7" d="M518.5,240.67a43.84,43.84,0,0,1-87.67,0c0-.95,0-1.9.1-2.84a43.82,43.82,0,0,1,43.74-41h.21a43.82,43.82,0,0,1,43.52,41C518.47,238.77,518.5,239.72,518.5,240.67Z"/><path class="cls-2" d="M518.4,237.83c.07.94.1,1.89.1,2.84a43.84,43.84,0,0,1-87.67,0c0-.95,0-1.9.1-2.84h-.1s2.34-26,2-39c-.32-12.62-2.85-22.73-4.51-35.51,14.95,2.79,30.1,6.87,38.51,11.68l2.17,1.24c-4-10.15-10.91-25.65-18.83-36.07-8.12-10.68-22.12-21.91-31.14-28.6-3.14-16.31-5.86-30.07-5.86-30.07s10.23,9.1,23.66,22.33c16.73,16.48,38.33,44.9,51.34,63,14.83,20.65,22.56,39.42,26.54,52.46a100.22,100.22,0,0,1,4.12,18.54Z"/><path class="cls-3" d="M469,176.24,466.83,175c-8.41-4.81-23.56-8.89-38.51-11.68l-.15-1.15c-.91-7.31-5.33-30.83-9.14-50.6,9,6.69,23,17.92,31.14,28.6C458.09,150.59,465,166.09,469,176.24Z"/></g><g id="Doodles"><path class="cls-6" d="M248.36,183.73a5.61,5.61,0,0,1-1.09-3.47,4.65,4.65,0,0,1,1.83-3.55A4.36,4.36,0,0,1,253,176a3.62,3.62,0,0,1,2.44,2.86,3.18,3.18,0,0,1-.21,1.76,2.84,2.84,0,0,1-1.07,1.22,2.54,2.54,0,0,1-2.54.14,2.11,2.11,0,0,1-1-1.32,1.61,1.61,0,0,1-.05-.6,1.71,1.71,0,0,0,.12.58,1.94,1.94,0,0,0,1.05,1.11,2.15,2.15,0,0,0,2.14-.33,2.26,2.26,0,0,0,.79-2.41,2.75,2.75,0,0,0-2-2,3.28,3.28,0,0,0-2.79.74,3.34,3.34,0,0,0-1.14,2.52,4.3,4.3,0,0,0,5,4.17,5.8,5.8,0,0,0,3.53-1.84,6.66,6.66,0,0,0,1.4-2.46c.22-.66.28-1.07.41-1.06s.25.4.2,1.17a5.79,5.79,0,0,1-1.13,3.06,6.63,6.63,0,0,1-4.18,2.59,5.77,5.77,0,0,1-3-.22A5.54,5.54,0,0,1,248.36,183.73Z"/><path class="cls-6" d="M460.94,193.68a4.33,4.33,0,0,0-2.61.39,3.31,3.31,0,0,0-1.72,2.17,3.24,3.24,0,0,0,.62,2.82,2.72,2.72,0,0,0,2.64.84,2.25,2.25,0,0,0,1.79-1.79,2.19,2.19,0,0,0-.68-2.06,2,2,0,0,0-1.48-.43,2,2,0,0,0-.57.16,1.82,1.82,0,0,1,.56-.23,2.16,2.16,0,0,1,1.64.3,2.51,2.51,0,0,1,1,2.32,2.83,2.83,0,0,1-.59,1.51,3.13,3.13,0,0,1-1.47,1,3.64,3.64,0,0,1-3.66-.86,4.37,4.37,0,0,1-1.15-3.84,4.61,4.61,0,0,1,2.33-3.25,5.58,5.58,0,0,1,6.54.85,5.83,5.83,0,0,1,1.57,2.59,6.57,6.57,0,0,1-.4,4.9,5.83,5.83,0,0,1-2.2,2.41c-.66.39-1.1.43-1.14.35s.27-.35.76-.85a6.69,6.69,0,0,0,1.55-2.37,5.79,5.79,0,0,0,0-4A4.34,4.34,0,0,0,460.94,193.68Z"/><path class="cls-6" d="M168,332.42a4.34,4.34,0,0,0-2.59.49,3.31,3.31,0,0,0-1.64,2.23,3.23,3.23,0,0,0,.73,2.79,2.72,2.72,0,0,0,2.67.75,2.27,2.27,0,0,0,1.72-1.87,2.16,2.16,0,0,0-.76-2,1.94,1.94,0,0,0-1.49-.38,1.78,1.78,0,0,0-.56.18,1.8,1.8,0,0,1,.54-.24,2.06,2.06,0,0,1,1.65.23,2.52,2.52,0,0,1,1.13,2.28,2.9,2.9,0,0,1-.54,1.53,3.2,3.2,0,0,1-1.44,1.05,3.66,3.66,0,0,1-3.68-.72,4.38,4.38,0,0,1-1.3-3.8,4.65,4.65,0,0,1,2.21-3.34,5.6,5.6,0,0,1,3.55-.75,5.66,5.66,0,0,1,3,1.35,5.81,5.81,0,0,1,1.67,2.54,6.58,6.58,0,0,1-.21,4.91,5.81,5.81,0,0,1-2.11,2.48c-.65.42-1.08.48-1.12.41s.26-.37.72-.88a6.59,6.59,0,0,0,1.46-2.43,5.78,5.78,0,0,0-.12-4A4.33,4.33,0,0,0,168,332.42Z"/><path class="cls-6" d="M240.74,415.48a5.55,5.55,0,0,1-3.37-1.36,4.63,4.63,0,0,1-1.59-3.68,4.4,4.4,0,0,1,1.95-3.51,3.65,3.65,0,0,1,3.76-.06,3.15,3.15,0,0,1,1.22,1.29,2.84,2.84,0,0,1,.26,1.6,2.53,2.53,0,0,1-1.51,2.05,2.12,2.12,0,0,1-1.66-.06,2,2,0,0,1-.5-.34,1.92,1.92,0,0,0,.53.27,2,2,0,0,0,1.53-.1,2.18,2.18,0,0,0,1.11-1.87,2.26,2.26,0,0,0-1.36-2.13,2.73,2.73,0,0,0-2.77.26,3.26,3.26,0,0,0-1.21,2.62,3.32,3.32,0,0,0,1.22,2.49,4.31,4.31,0,0,0,6.41-1.22,5.85,5.85,0,0,0,.82-3.89,6.66,6.66,0,0,0-1-2.65c-.37-.59-.64-.89-.56-1s.47.07,1,.59a5.88,5.88,0,0,1,1.64,2.82,6.62,6.62,0,0,1-.66,4.87,5.85,5.85,0,0,1-2.09,2.2A5.6,5.6,0,0,1,240.74,415.48Z"/><path class="cls-6" d="M395,351.53a4.28,4.28,0,0,0,1.49,2.18,3.28,3.28,0,0,0,2.7.6,3.24,3.24,0,0,0,2.26-1.79,2.71,2.71,0,0,0-.39-2.75,2.26,2.26,0,0,0-2.4-.82,2.13,2.13,0,0,0-1.55,1.51,2,2,0,0,0,.26,1.52,1.86,1.86,0,0,0,.39.44,1.8,1.8,0,0,1-.45-.4,2.16,2.16,0,0,1-.45-1.61,2.52,2.52,0,0,1,1.64-1.94,2.73,2.73,0,0,1,1.61-.12,3.16,3.16,0,0,1,1.54.88,3.66,3.66,0,0,1,.83,3.67,4.41,4.41,0,0,1-3,2.72,4.67,4.67,0,0,1-3.95-.68,5.64,5.64,0,0,1-2.1-6.25,5.89,5.89,0,0,1,1.65-2.55,6.63,6.63,0,0,1,4.58-1.79,5.76,5.76,0,0,1,3.12.93c.65.43.88.8.82.87s-.43-.09-1.09-.31a6.58,6.58,0,0,0-2.81-.36,5.8,5.8,0,0,0-3.59,1.72A4.31,4.31,0,0,0,395,351.53Z"/><path class="cls-6" d="M533.37,383.7a5.62,5.62,0,0,1-3.64-.06,4.67,4.67,0,0,1-2.79-2.87,4.35,4.35,0,0,1,.56-4,3.62,3.62,0,0,1,3.48-1.4,3.14,3.14,0,0,1,1.61.76,2.89,2.89,0,0,1,.81,1.39,2.52,2.52,0,0,1-.67,2.46,2.11,2.11,0,0,1-1.57.54,1.75,1.75,0,0,1-.59-.14,2,2,0,0,0,.59.07,1.94,1.94,0,0,0,1.39-.65,2.17,2.17,0,0,0,.37-2.13,2.28,2.28,0,0,0-2-1.51,2.73,2.73,0,0,0-2.49,1.24,3.24,3.24,0,0,0-.18,2.88,3.28,3.28,0,0,0,2,1.88,4.29,4.29,0,0,0,2.63,0,4.35,4.35,0,0,0,2.91-3.42,5.81,5.81,0,0,0-.63-3.93,6.8,6.8,0,0,0-1.89-2.11c-.56-.42-.92-.6-.88-.73s.47-.1,1.18.19a5.71,5.71,0,0,1,2.54,2,6.61,6.61,0,0,1,1.13,4.79,5.88,5.88,0,0,1-1.16,2.8A5.64,5.64,0,0,1,533.37,383.7Z"/></g><g id="Cat_whiskers_R"><path class="cls-6" d="M354,287.58a84,84,0,0,1,11.46-4.9q5.88-2.08,11.92-3.66a202.33,202.33,0,0,1,24.51-4.74c8.25-1.16,16.58-1.58,24.87-2.06s16.61-.74,24.91-1q24.93-.58,49.84-.66l24.92.07c8.31.1,16.62.17,24.92.36l-49.83.73c-16.6.26-33.21.49-49.81,1q-12.45.27-24.88.83c-8.29.41-16.57.86-24.8,1.84a203.07,203.07,0,0,0-24.47,4.31c-4,.93-8,2-12,3.33A92.56,92.56,0,0,0,354,287.58Z"/><path class="cls-6" d="M363.81,293.84c15.33-3.31,30.78-6.13,46.38-8,1.95-.24,3.91-.43,5.86-.63s3.94-.24,5.9-.35c3.93-.11,7.86-.21,11.78-.23,7.85-.08,15.69,0,23.54,0,15.68.24,31.36.56,47,1l23.51.82c7.83.34,15.67.64,23.5,1.05l-23.52-.32-23.52-.39c-15.68-.26-31.35-.59-47-.71-7.84-.1-15.68-.2-23.51-.16-3.92,0-7.83.07-11.74.16-1.95.09-3.89.18-5.84.3s-3.9.31-5.84.52c-7.79.77-15.55,1.86-23.3,3S371.54,292.48,363.81,293.84Z"/><path class="cls-6" d="M362.47,304.14q22.14-2.44,44.38-4c7.41-.51,14.82-.94,22.26-1.12s14.86-.22,22.29-.18,14.86.19,22.28.49,14.85.68,22.26,1.23,14.82,1.28,22.18,2.35l22,3.12h0l20.51,5.23-20.66-4.62h0L518,304c-7.36-.93-14.74-1.56-22.14-2.08-14.79-1-29.63-1.37-44.46-1.59-7.42-.08-14.84-.08-22.25.06s-14.82.48-22.23.86C392.09,302,377.28,303.05,362.47,304.14Z"/></g><g id="Cat_whiskers_L"><path class="cls-6" d="M306.53,288.47a258,258,0,0,0-25.67-7.62A212.11,212.11,0,0,0,254.57,276a264.3,264.3,0,0,0-26.7-1.5c-8.92-.11-17.85.08-26.77.44-17.85.61-35.66,2-53.51,3.14s-35.74,1.63-53.62,1.44c8.93-.21,17.87-.52,26.79-1s17.85-.93,26.75-1.61c17.82-1.36,35.65-2.75,53.54-3.49,8.94-.32,17.89-.46,26.84-.31a240.68,240.68,0,0,1,26.82,1.73A227,227,0,0,1,306.53,288.47Z"/><path class="cls-6" d="M293.11,296.08q-12.92-2.41-26-3.91c-8.69-1-17.42-1.73-26.16-1.93l-3.27-.06-3.28,0c-1.09,0-2.18,0-3.27,0l-3.27.14c-4.36.19-8.73.56-13.09.88-8.73.69-17.45,1.49-26.17,2.31L162.45,296c-8.73.75-17.46,1.56-26.22,2a356.07,356.07,0,0,1-52.56-1c8.75.47,17.51.75,26.26.74s17.51-.21,26.23-.88c17.45-1.32,34.89-3.11,52.33-4.75,8.73-.78,17.46-1.53,26.21-2.18,4.37-.3,8.74-.64,13.13-.81,2.2-.09,4.4-.18,6.6-.14l3.29,0,3.29.11A300.33,300.33,0,0,1,293.11,296.08Z"/><path class="cls-6" d="M298.93,305.48c-8.92.2-17.84.44-26.75.84-4.46.18-8.91.38-13.36.63s-8.9.53-13.33,1c-17.71,1.86-35.35,4.58-53,7.36l-26.44,4.17-13.2,2.13q-6.58,1.15-13.16,2.38c-8.76,1.65-17.51,3.41-26.24,5.2l-26.22,5.38c8.66-2.13,17.36-4.11,26.06-6.1s17.44-3.82,26.18-5.61q6.56-1.35,13.16-2.53l13.21-2.2,26.42-4.3c8.82-1.36,17.65-2.68,26.49-3.9s17.7-2.37,26.61-3.13C263.23,305.48,281.08,305.31,298.93,305.48Z"/></g><g id="Tail_markers" data-name="Tail markers"><circle class="cls-8" cx="120.71" cy="419.58" r="5.33"/><circle class="cls-8" cx="120.45" cy="330.91" r="5.33"/><circle class="cls-8" cx="120.18" cy="187.58" r="5.33"/><circle class="cls-8" cx="120" cy="95.58" r="5.33"/><path class="cls-9" d="M225.15,196.79c2.25,2.83,7.67,1.18,8.48-2.2,0,.22-.81.27-.87.5-.74,3.11-4.86,3.57-6.75,1.2,0,0-.84.53-.86.5Z"/><path class="cls-9" d="M234.73,194.51c3.43.74,7.05,1.37,10.26-.4,1.21-.66,2.73-1.57,2.7-3.11-.07-3.55-6.83-3-9-3.11-3.65-.18-7.62-.39-11,1.16-4.58,2.09-6.88,6.65-4.74,11.54,3.51,8,14.66,8.54,22,7.26,7.06-1.22,13.58-4.47,19.42-8.54-.27.19-.59.31-.87.5-7.15,5-15.72,8.3-24.53,8.05-6.21-.17-13.84-2.38-15.68-9.14a8,8,0,0,1,2-8.07c2.3-2.14,5.95-2.36,8.94-2.38s6.72-.18,9.71.61,3.85,3.34,1.06,5.26l.85-.49c-3.2,1.74-6.79,1.1-10.19.36-.24,0-.63.55-.86.5Z"/></g></svg>