<svg xmlns="http://www.w3.org/2000/svg" viewBox="0 0 320 34.77"><defs><style>.cls-1{fill:#fff;}.cls-2{fill:none;stroke:#fff;stroke-miterlimit:10;stroke-width:0.75px;}</style></defs><title>logo_white</title><g id="Warstwa_2" data-name="Warstwa 2"><g id="Warstwa_1-2" data-name="Warstwa 1"><path class="cls-1" d="M6.81,13.34a4,4,0,0,0-.75-1.57A1.38,1.38,0,0,0,5,11.33a1.41,1.41,0,0,0-1.09.44,4.31,4.31,0,0,0-.75,1.57L0,23.44H.89l.8-2.58h0L2.8,17.29h0L4,13.34a3,3,0,0,1,.41-.93.66.66,0,0,1,1,0,3.36,3.36,0,0,1,.42.92l1.24,4h0l.4,1.26h0l.23.72h0l.45,1.47.83,2.67H10Z"/><path class="cls-2" d="M168.21,34.39h-2.53l-2.32-7.49-.9-2.93a.67.67,0,0,0-.84-.45l-1,.32-.18.07A6.38,6.38,0,0,1,156,12a4.87,4.87,0,0,1,.53-.21h0l1.35-.42a.66.66,0,0,0,.44-.84L156.87,6a9.36,9.36,0,0,0-1.17-2.58,1.73,1.73,0,0,0-1.46-.72,1.79,1.79,0,0,0-1.46.69A9.52,9.52,0,0,0,151.61,6l-3.45,11.1h0l-3.13,10h0l-2.27,7.25h-2.49L149.08,6a11.88,11.88,0,0,1,2.1-4.4,4.41,4.41,0,0,1,6.13,0,11.88,11.88,0,0,1,2.1,4.4l1.37,4.4.08.28a2.13,2.13,0,0,1-1.4,2.67l-.27.09-2,.62h0a4,4,0,0,0,2.35,7.55l.07,0h.05l.2-.07,1.66-.52.26-.08a2.13,2.13,0,0,1,2.67,1.41l.09.27Z"/><path class="cls-1" d="M13.86,22.48a3.48,3.48,0,0,1-.93-2.66v-8.4h.89v8.4a2.81,2.81,0,0,0,.7,2.11,3,3,0,0,0,2.2.68h3.83v.74H16.72A4.06,4.06,0,0,1,13.86,22.48Z"/><path class="cls-1" d="M24.42,22.48a3.45,3.45,0,0,1-.94-2.66V14.93a3.41,3.41,0,0,1,.94-2.65,4.15,4.15,0,0,1,2.88-.86h4.14v.73H27.3a3.12,3.12,0,0,0-2.22.68,2.74,2.74,0,0,0-.71,2.1V17h6.16v.73H24.37v2.08a2.81,2.81,0,0,0,.71,2.11,3.11,3.11,0,0,0,2.22.68h4.26v.74H27.3A4.1,4.1,0,0,1,24.42,22.48Z"/><path class="cls-1" d="M41.68,16.77A4.9,4.9,0,0,1,42.84,19L44,23.35h-.89L42,19a4,4,0,0,0-.56-1.38,2,2,0,0,0-.92-.71,4.94,4.94,0,0,0-1.55-.28l-2.79,2.81v3.87h-.89V11.42h.89v7l6.86-7h1.13L39.6,16A3.38,3.38,0,0,1,41.68,16.77Z"/><path class="cls-1" d="M48.87,23.06A4.79,4.79,0,0,1,47,21.52l.61-.54a4.43,4.43,0,0,0,1.56,1.39,4.72,4.72,0,0,0,2.14.41A4.44,4.44,0,0,0,54,22.1a2.19,2.19,0,0,0,.94-1.89A1.83,1.83,0,0,0,54.59,19a2.62,2.62,0,0,0-1.2-.77,14.68,14.68,0,0,0-2.49-.63,5.46,5.46,0,0,1-2.65-1.12,2.63,2.63,0,0,1-.84-2.07,3,3,0,0,1,.5-1.7,3.06,3.06,0,0,1,1.41-1.12,5.22,5.22,0,0,1,2.13-.4,5.66,5.66,0,0,1,2.43.48,3.58,3.58,0,0,1,1.57,1.41l-.63.5a3.27,3.27,0,0,0-1.35-1.23,4.61,4.61,0,0,0-2-.42,3.52,3.52,0,0,0-2.26.68,2.16,2.16,0,0,0-.87,1.79A1.88,1.88,0,0,0,49.06,16a5.81,5.81,0,0,0,2.46.91,13.15,13.15,0,0,1,2.59.73,2.92,2.92,0,0,1,1.32,1,2.84,2.84,0,0,1,.4,1.56,2.9,2.9,0,0,1-1.15,2.46,5.4,5.4,0,0,1-3.3.86A5.83,5.83,0,0,1,48.87,23.06Z"/><path class="cls-1" d="M65.47,13.34a4.31,4.31,0,0,0-.75-1.57,1.57,1.57,0,0,0-2.18,0,4.31,4.31,0,0,0-.75,1.57l-3.13,10.1h.88l.72-2.3h0l.8-2.56,1.63-5.24a3.18,3.18,0,0,1,.42-.93.66.66,0,0,1,1,0,3.36,3.36,0,0,1,.42.92l1.32,4.25.08.27.23.72h0l.22.72L67,21.11l.72,2.33h.9Z"/><path class="cls-1" d="M81.16,11.42V21.86A1.7,1.7,0,0,1,80.85,23a1.22,1.22,0,0,1-1,.37h-.63L73,12.68V23.35h-.86V11.42h1.09l6.46,11.12h.12a.39.39,0,0,0,.36-.16,1.17,1.17,0,0,0,.1-.59V11.42Z"/><path class="cls-1" d="M85.35,11.42h4.17a6.15,6.15,0,0,1,2.92.58A3.38,3.38,0,0,1,94,13.87a10.44,10.44,0,0,1,.48,3.51A10.36,10.36,0,0,1,94,20.89a3.35,3.35,0,0,1-1.56,1.88,6.29,6.29,0,0,1-2.93.58H85.35Zm4.17,11.19a4.81,4.81,0,0,0,2.4-.51,3,3,0,0,0,1.29-1.64,9.46,9.46,0,0,0,.4-3.08,9.41,9.41,0,0,0-.4-3.06,3,3,0,0,0-1.29-1.66,4.81,4.81,0,0,0-2.4-.51H86.23V22.61Z"/><path class="cls-1" d="M107,23.35h-.94l-.84-3.21a5.07,5.07,0,0,0-.55-1.39,1.91,1.91,0,0,0-.89-.74,4.29,4.29,0,0,0-1.59-.24h-3v5.58H98.3V11.42h5.19a3.31,3.31,0,0,1,2.26.79,2.93,2.93,0,0,1,.91,2.34,3,3,0,0,1-.64,2,2.65,2.65,0,0,1-1.71.94,2.36,2.36,0,0,1,1.18.88,6,6,0,0,1,.71,1.74ZM103.29,17a2.54,2.54,0,0,0,1.81-.63,2.34,2.34,0,0,0,.67-1.8,2.42,2.42,0,0,0-.66-1.84,2.57,2.57,0,0,0-1.82-.62H99.18V17Z"/><path class="cls-1" d="M117,13.34a4.15,4.15,0,0,0-.75-1.57,1.38,1.38,0,0,0-1.09-.44,1.4,1.4,0,0,0-1.09.44,4.31,4.31,0,0,0-.75,1.57l-3.13,10.1h.88l.75-2.38v0l1.09-3.53h0l1.3-4.17a3,3,0,0,1,.41-.93.66.66,0,0,1,1,0,3.36,3.36,0,0,1,.42.92l1.3,4.17.33,1.07h0l.22.72h0l1.27,4.14h.91Z"/><path class="cls-1" d="M188.44,22.38a4.15,4.15,0,0,1-1.2-3.2V15.57a4.17,4.17,0,0,1,1.17-3.18,4.72,4.72,0,0,1,3.37-1.11,6.21,6.21,0,0,1,2.48.45A4.22,4.22,0,0,1,196,13.11l-.62.47a3.74,3.74,0,0,0-1.48-1.18,5,5,0,0,0-2.07-.39,3.81,3.81,0,0,0-2.76.91,3.51,3.51,0,0,0-.94,2.65v3.61a3.42,3.42,0,0,0,1,2.65,4,4,0,0,0,2.84.91,5.11,5.11,0,0,0,2.1-.39,3.73,3.73,0,0,0,1.48-1.21l.61.5a4.55,4.55,0,0,1-1.74,1.41,6.13,6.13,0,0,1-2.45.44A5,5,0,0,1,188.44,22.38Z"/><path class="cls-1" d="M199.28,11.47h.88V17h7.09V11.47h.87V23.3h-.87V17.72h-7.09V23.3h-.88Z"/><path class="cls-1" d="M220.62,23.3h-.93l-.82-3.18a5.17,5.17,0,0,0-.55-1.38,1.89,1.89,0,0,0-.89-.73,4.17,4.17,0,0,0-1.57-.24h-3V23.3H212V11.47h5.16a3.32,3.32,0,0,1,2.24.78,2.94,2.94,0,0,1,.9,2.33,3.06,3.06,0,0,1-.63,2,2.64,2.64,0,0,1-1.7.93,2.28,2.28,0,0,1,1.17.88,6.18,6.18,0,0,1,.71,1.72ZM216.9,17a2.49,2.49,0,0,0,1.8-.62,2.33,2.33,0,0,0,.67-1.79,2.37,2.37,0,0,0-.66-1.82,2.55,2.55,0,0,0-1.81-.62h-4.07V17Z"/><path class="cls-1" d="M230.11,13.37a4.11,4.11,0,0,0-.74-1.56,1.41,1.41,0,0,0-1.08-.44,1.43,1.43,0,0,0-1.09.44,4.11,4.11,0,0,0-.74,1.56l-3.11,10h.88l.67-2.15.13-.42,1-3.12h0l1.35-4.33a3,3,0,0,1,.41-.92.61.61,0,0,1,.52-.25.63.63,0,0,1,.51.25,3.52,3.52,0,0,1,.42.92l1.35,4.34.27.86h0l.22.71h0l1.27,4.11h.89Z"/><path class="cls-1" d="M236.35,11.47h5.09a3.15,3.15,0,0,1,2.38.88,3.38,3.38,0,0,1,.85,2.45,3.42,3.42,0,0,1-.85,2.46,3.15,3.15,0,0,1-2.38.88h-4.21V23.3h-.88Zm4.94,6a2.39,2.39,0,0,0,1.84-.7,2.66,2.66,0,0,0,.66-1.92,2.64,2.64,0,0,0-.66-1.91,2.39,2.39,0,0,0-1.84-.7h-4.06v5.23Z"/><path class="cls-1" d="M254.19,16.77a5,5,0,0,1,1.15,2.2l1.13,4.33h-.88L254.46,19a4,4,0,0,0-.56-1.36A2,2,0,0,0,253,17a5.24,5.24,0,0,0-1.54-.28l-2.77,2.79V23.3h-.88V11.47h.88V18.4l6.81-6.93h1.12L252.13,16A3.32,3.32,0,0,1,254.19,16.77Z"/><path class="cls-1" d="M260.22,22.37A4.17,4.17,0,0,1,259,19.18V15.59a4.16,4.16,0,0,1,1.19-3.19,4.72,4.72,0,0,1,3.39-1.12A4.77,4.77,0,0,1,267,12.4a4.12,4.12,0,0,1,1.19,3.19v3.59A4.13,4.13,0,0,1,267,22.37a4.81,4.81,0,0,1-3.41,1.12A4.76,4.76,0,0,1,260.22,22.37Zm6.15-.55a3.49,3.49,0,0,0,1-2.64V15.59a3.51,3.51,0,0,0-1-2.65,4.53,4.53,0,0,0-5.5,0,3.51,3.51,0,0,0-1,2.65v3.59a3.49,3.49,0,0,0,1,2.64,4.57,4.57,0,0,0,5.5,0Z"/><path class="cls-1" d="M284.5,11.47,281.8,23.3h-.39a2,2,0,0,1-1.1-.27,1.54,1.54,0,0,1-.59-.9l-2.1-6.61-2.1,6.61a1.51,1.51,0,0,1-.6.89,1.89,1.89,0,0,1-1.1.28h-.37l-2.71-11.83h.86l2.5,11a.84.84,0,0,0,.71-.66l2.81-8.61,2.79,8.61a1.19,1.19,0,0,0,.27.46.78.78,0,0,0,.44.2l2.5-11Z"/><path class="cls-1" d="M288.59,23a5,5,0,0,1-1.82-1.53l.61-.54a4.51,4.51,0,0,0,1.55,1.39,4.8,4.8,0,0,0,2.12.4,4.43,4.43,0,0,0,2.63-.67,2.18,2.18,0,0,0,.94-1.88,1.85,1.85,0,0,0-.35-1.17,2.81,2.81,0,0,0-1.19-.76,15.54,15.54,0,0,0-2.47-.62A5.52,5.52,0,0,1,288,16.53a2.62,2.62,0,0,1-.83-2.06,2.94,2.94,0,0,1,.49-1.69,3.08,3.08,0,0,1,1.4-1.11,5.33,5.33,0,0,1,2.11-.39,5.69,5.69,0,0,1,2.41.47,3.64,3.64,0,0,1,1.57,1.41l-.63.49a3.22,3.22,0,0,0-1.34-1.22,4.55,4.55,0,0,0-2-.42,3.52,3.52,0,0,0-2.25.67,2.14,2.14,0,0,0-.86,1.78,1.88,1.88,0,0,0,.75,1.56,5.89,5.89,0,0,0,2.44.91,12.88,12.88,0,0,1,2.57.71,2.9,2.9,0,0,1,1.31,1,2.72,2.72,0,0,1,.4,1.55,2.86,2.86,0,0,1-1.14,2.44,5.37,5.37,0,0,1-3.27.86A5.93,5.93,0,0,1,288.59,23Z"/><path class="cls-1" d="M305.13,16.77a4.87,4.87,0,0,1,1.15,2.2l1.14,4.33h-.88L305.4,19a4.16,4.16,0,0,0-.55-1.36,2,2,0,0,0-.92-.71,5.18,5.18,0,0,0-1.54-.28l-2.77,2.79V23.3h-.88V11.47h.88V18.4l6.81-6.93h1.12L303.07,16A3.32,3.32,0,0,1,305.13,16.77Z"/><path class="cls-1" d="M316.89,13.37a4.26,4.26,0,0,0-.74-1.56,1.45,1.45,0,0,0-1.09-.44,1.41,1.41,0,0,0-1.08.44,4.11,4.11,0,0,0-.74,1.56l-3.11,10H311l.71-2.28h0l1.11-3.55h0l1.3-4.19a3.22,3.22,0,0,1,.42-.92.61.61,0,0,1,.51-.25.64.64,0,0,1,.52.25,3.26,3.26,0,0,1,.41.92l1.32,4.21.31,1h0l.22.71h0l1.26,4.11h.9Z"/></g></g></svg>