<svg xmlns="http://www.w3.org/2000/svg" viewBox="0 0 28.96 34.77"><defs><style>.cls-1{fill:none;stroke:#fff;stroke-miterlimit:10;stroke-width:0.75px;}</style></defs><title>logo_white</title><g id="Warstwa_2" data-name="Warstwa 2"><g id="Warstwa_1-2" data-name="Warstwa 1"><path class="cls-1" d="M28.45,34.39H25.91L23.6,26.9,22.7,24a.68.68,0,0,0-.85-.45l-1,.32-.19.07A6.38,6.38,0,0,1,16.18,12l.54-.21h0l1.35-.42a.67.67,0,0,0,.44-.84L17.11,6a9.67,9.67,0,0,0-1.17-2.58,1.86,1.86,0,0,0-2.92,0A9,9,0,0,0,11.85,6L8.39,17.12h0l-3.13,10h0L3,34.39H.51L9.31,6a11.71,11.71,0,0,1,2.11-4.4A4,4,0,0,1,14.48.38a4,4,0,0,1,3.06,1.24A11.71,11.71,0,0,1,19.65,6L21,10.42l.09.28a2.13,2.13,0,0,1-1.41,2.67l-.26.09-2,.62h0a4,4,0,0,0,2.36,7.55l.07,0h.05l.19-.07L21.78,21l.25-.08a2.14,2.14,0,0,1,2.68,1.41l.08.27Z"/></g></g></svg>